<svg height="512" viewBox="0 0 60 60" width="512" xmlns="http://www.w3.org/2000/svg"><g id="Page-1" fill="none" fill-rule="evenodd"><g id="004---Ball-and-Hoop" fill-rule="nonzero"><g id="Icons" transform="translate(1 1)"><rect id="Rectangle-path" fill="#f44335" height="7" rx="3.5" width="58" y="21"/><path id="Shape" d="m54.5 21h-3c1.9329966.0000001 3.4999999 1.5670034 3.4999999 3.5s-1.5670033 3.4999999-3.4999999 3.5h3c1.9329966 0 3.5-1.5670034 3.5-3.5s-1.5670034-3.5-3.5-3.5z" fill="#c81e1e"/><path id="Shape" d="m45.53 21c.3148184-1.3099626.4725949-2.6527413.47-4-.0004224-.8738115-.0672818-1.7463261-.2-2.61-1.2295555-7.89748723-7.7921998-13.87336369-15.77-14.36-.34-.02-.69-.03-1.03-.03-4.5095751-.0029208-8.8352889 1.78720753-12.0240407 4.97595933s-4.9788801 7.51446557-4.9759593 12.02404067v.07c.0078868 1.3235371.1655571 2.6419289.47 3.93" fill="#ff9801"/><path id="Shape" d="m45.8 14.39c-1.2295555-7.89748723-7.7921998-13.87336369-15.77-14.36-.34-.02-.69-.03-1.03-.03-.516 0-1.025.031-1.529.076 7.7981801.66770537 14.129452 6.57975616 15.329 14.314.1327182.8636739.1995776 1.7361885.2 2.61.0025949 1.3472587-.1551816 2.6900374-.47 4h3c.3148184-1.3099626.4725949-2.6527413.47-4-.0004224-.8738115-.0672818-1.7463261-.2-2.61z" fill="#f57c00"/></g><g id="Icons_copy"><path id="Shape" d="m18 14c-.3344418.0000279-.6467576-.1671352-.8322261-.4454385-.1854686-.2783033-.219534-.6308996-.0907739-.9395615.9060907-2.1703165 2.3422769-4.07858394 4.177-5.55.4326485-.31519642 1.0367783-.23380244 1.3705818.18465753s.27889 1.02556968-.1245818 1.37734247c-1.5731766 1.26054828-2.8042334 2.8963408-3.58 4.757-.1546469.3718568-.5172702.6146567-.92.616z" fill="#f5f5f5"/><path id="Shape" d="m55.5 21h-7.751c1.187804-7.0523702-1.9121445-14.13896588-7.8973336-18.05359405-5.9851892-3.91462818-13.7201436-3.91462818-19.7053328 0-5.9851891 3.91462817-9.0851376 11.00122385-7.8973336 18.05359405h-7.749c-2.48528137 0-4.5 2.0147186-4.5 4.5s2.01471863 4.5 4.5 4.5h6.025c4.631 6.246 5.457 20.736 5.515 28.5-.0255952.5924294.3183609 1.1387917.8636271 1.3718419.5452663.2330502 1.1778662.1040739 1.5883729-.3238419l2.9-3.246 3.047 3.186c.3376278.3322487.7938773.5160364 1.2675355.510592.4736582-.0054443.9255628-.1996705 1.2554645-.539592l3.038-3.182 3.071 3.211c.3376278.3322487.7938773.5160364 1.2675355.510592.4736582-.0054443.9255628-.1996705 1.2554645-.539592l3.016-3.159 2.947 3.3c.4229198.3950895 1.0425891.4956087 1.5687144.2544679.5261254-.2411408.8544976-.776179.8312856-1.3544679.06-7.767.877-22.21 5.517-28.5h6.026c2.4852813-.0000001 4.4999999-2.0147187 4.4999999-4.5s-2.0147186-4.4999999-4.4999999-4.5zm-13.953 0c-.7289459-1.8134948-1.1177608-3.7457046-1.147-5.7 1.8447682.2028592 3.6766627.5093435 5.487.918.1985376 1.5935457.1353721 3.2088245-.187 4.782zm.54-13.482c1.6457808 1.88752876 2.8196681 4.1389933 3.425 6.569-1.619-.342-3.311-.61-5.055-.8.1484966-2.0132864.7029621-3.97568625 1.63-5.769zm-3.619 5.576c-.8273333-.0666667-1.6606667-.1153333-2.5-.146-.2700147-3.68484841-1.2246582-7.2870594-2.815-10.622 2.7772686.55583636 5.3557457 1.84317617 7.469 3.729-1.2343957 2.15614528-1.9703963 4.5613025-2.154 7.039zm-4.331 1.815c.1534826 2.0266049.1852063 4.0605943.095 6.091h-4.316c.8113182-1.9069265 1.1733106-3.9748675 1.058-6.044 1.0533333-.0413333 2.1076667-.057 3.163-.047zm2.011.056c.754.032 1.5.081 2.244.139.0127372 2.0071072.3532195 3.9986587 1.008 5.896h-3.166c.0863957-2.0116613.0576822-4.0266173-.086-6.035zm-5.586-12.947c1.585 1.879 2.852 5.957 3.4 10.875-1.078-.007-2.158.022-3.238.069-.901301-4.00998227-3.3246443-7.51323519-6.759-9.771 2.093399-.84586332 4.3403289-1.24538563 6.597-1.173zm-8.686 2.2c3.3872419 1.89993269 5.8539291 5.09821235 6.831 8.857-5.0268188.2786836-9.9700967 1.4069817-14.62 3.337.5049507-5.072558 3.3981075-9.60042814 7.789-12.19zm-7.835 14.445c4.321-2.2 10.065-3.241 14.937-3.593.1048655 2.0555089-.3382483 4.1019772-1.284 5.93h-13.387c-.1437506-.7717399-.2326398-1.5526953-.266-2.337zm24.6 34.778-2.876-2.774 2.873-2.767 2.874 2.773zm-8.637 0-2.879-2.774 2.875-2.778 2.879 2.778zm-8.635 0-2.875-2.77 2.871-2.771 2.875 2.77zm8.631-22.221 2.881 2.78-2.881 2.78-2.878-2.78zm0 13.89-2.875-2.774 2.875-2.776 2.876 2.775zm-1.44-6.94-2.877 2.775-2.874-2.773 2.875-2.779zm-4.317 4.165-2.882 2.781-2.872-2.767 2.881-2.786zm-4.322 4.171-2.3 2.217c-.154-1.734-.348-3.4-.579-4.978h.006zm2.884 0 2.88-2.781 2.875 2.775-2.88 2.779zm8.635-.006 2.876-2.775 2.882 2.78-2.878 2.773zm11.517-2.762c-.231 1.579-.425 3.246-.581 4.991l-2.3-2.22 2.878-2.773zm-4.321 1.381-2.881-2.783 2.883-2.781 2.884 2.783zm-4.321-4.173-2.875-2.776 2.881-2.781 2.879 2.776zm1.441-6.946 4.144-4h5.76l-7.029 6.782zm-1.439-1.39-2.702-2.61h5.409zm-8.638 0-2.703-2.61h5.408zm-5.579-2.61 4.143 4-2.877 2.776-7.026-6.776zm-5.885 2.655 5.711 5.51-2.885 2.784-.581-.56c-.5003827-2.6440447-1.2535057-5.2339307-2.249-7.734zm3.811 24.419c-.023-1.462-.067-2.921-.123-4.2l2.079 2zm7.661.826-2.909-3.041 2.906-2.8 2.909 2.8zm8.636 0-2.908-3.041 2.909-2.8 2.906 2.8zm5.7-3.017 2.079-2c-.057 1.28-.1 2.73-.126 4.193zm3.522-14.494-.593.571-2.882-2.787 5.719-5.518c-.9953268 2.4997163-1.7468179 5.0897483-2.244 7.734zm11.955-12.389h-51c-1.38071187 0-2.5-1.1192881-2.5-2.5s1.11928813-2.5 2.5-2.5h51c1.3807119 0 2.5 1.1192881 2.5 2.5s-1.1192881 2.5-2.5 2.5z" fill="#000"/></g></g></g></svg>